<svg xmlns="http://www.w3.org/2000/svg" width="162" height="73" viewBox="-3 -3 168 79" fill="none"><g id="deeditor_bgCarrier" stroke-width="0">
    <rect id="dee_c_e" x="-3" y="-3" width="168" height="79" rx="0" fill="#001b1b" strokewidth="0"/>
  </g>
<rect x="47.7017" y="48.9502" width="66.9848" height="24" rx="1.99797" fill="#00A7E1"/>
<path d="M63.8893 55.7935V57.5518H60.9163V66.9502H58.6785V57.5518H55.7056V55.7935H63.8893ZM70.9564 57.5358V60.4288H74.7126V62.1551H70.9564V65.176H75.1921V66.9502H68.7187V55.7776H75.1921V57.5358H70.9564ZM79.879 61.3559C79.879 60.2583 80.1241 59.278 80.6142 58.4149C81.1151 57.5411 81.7917 56.8644 82.6442 56.3849C83.5073 55.8948 84.4717 55.6497 85.5372 55.6497C86.784 55.6497 87.8762 55.9694 88.8139 56.6087C89.7516 57.2481 90.407 58.1325 90.7799 59.262H88.2065C87.9401 58.7505 87.5778 58.3669 87.1196 58.1112C86.6614 57.8448 86.1286 57.7116 85.5213 57.7116C84.8712 57.7116 84.2905 57.8608 83.779 58.1591C83.2782 58.4575 82.8839 58.8837 82.5962 59.4378C82.3192 59.9919 82.1807 60.6313 82.1807 61.3559C82.1807 62.0805 82.3192 62.7198 82.5962 63.2739C82.8839 63.8174 83.2782 64.2436 83.779 64.5526C84.2905 64.851 84.8712 65.0002 85.5213 65.0002C86.1286 65.0002 86.6614 64.867 87.1196 64.6006C87.5885 64.3342 87.9508 63.9453 88.2065 63.4338H90.7799C90.407 64.5739 89.7516 65.4637 88.8139 66.1031C87.8869 66.7318 86.7946 67.0461 85.5372 67.0461C84.4717 67.0461 83.5073 66.8063 82.6442 66.3268C81.7917 65.8367 81.1151 65.16 80.6142 64.2969C80.1241 63.4338 79.879 62.4534 79.879 61.3559ZM105.143 55.7935V66.9502H102.905V62.1711H98.1257V66.9502H95.888V55.7935H98.1257V60.4128H102.905V55.7935H105.143Z" fill="white"/>
<path d="M44.7045 60.314H0V61.4378H44.7045V60.314Z" fill="#00A7E1"/>
<path d="M161.461 60.314H116.756V61.4378H161.461V60.314Z" fill="#00A7E1"/>
<path d="M77.4211 39.9951L72.781 31.5729H71.4779V39.9951H66.0432V17.6843H75.1646C76.9232 17.6843 78.4169 17.9915 79.6458 18.606C80.8959 19.2204 81.8282 20.0679 82.4426 21.1485C83.0571 22.2079 83.3643 23.3944 83.3643 24.7081C83.3643 26.1912 82.9405 27.5155 82.093 28.6808C81.2667 29.8461 80.0378 30.6725 78.4063 31.1598L83.555 39.9951H77.4211ZM71.4779 27.7274H74.8468C75.8426 27.7274 76.5842 27.4837 77.0715 26.9964C77.58 26.5091 77.8343 25.8204 77.8343 24.9306C77.8343 24.0619 77.58 23.3838 77.0715 22.8965C76.5842 22.388 75.8426 22.1338 74.8468 22.1338H71.4779V27.7274ZM92.2105 17.6843V39.9951H86.7759V17.6843H92.2105ZM95.2273 28.8079C95.2273 26.6044 95.7041 24.6445 96.6575 22.9283C97.6322 21.1909 98.9776 19.8455 100.694 18.892C102.41 17.9174 104.37 17.4301 106.573 17.4301C109.243 17.4301 111.489 18.0763 113.311 19.3687C115.155 20.6612 116.373 22.4516 116.966 24.7399H110.959C110.557 23.9983 109.974 23.4368 109.211 23.0554C108.47 22.6529 107.59 22.4516 106.573 22.4516C104.815 22.4516 103.406 23.0342 102.346 24.1996C101.287 25.3437 100.757 26.8798 100.757 28.8079C100.757 30.8632 101.308 32.4734 102.41 33.6388C103.533 34.7829 105.069 35.355 107.018 35.355C108.353 35.355 109.487 35.016 110.419 34.338C111.351 33.6388 112.019 32.6535 112.421 31.3823H105.525V27.4095H117.347V32.4628C116.945 33.8189 116.256 35.0795 115.282 36.2449C114.328 37.4102 113.11 38.3531 111.627 39.0734C110.144 39.7938 108.47 40.154 106.605 40.154C104.402 40.154 102.431 39.6773 100.694 38.7238C98.9776 37.7492 97.6322 36.4038 96.6575 34.6876C95.7041 32.9713 95.2273 31.0115 95.2273 28.8079ZM139.681 17.6843V39.9951H134.246V30.7466H125.792V39.9951H120.358V17.6843H125.792V26.4561H134.246V17.6843H139.681ZM159.654 17.6843V21.9749H153.743V39.9951H148.308V21.9749H142.397V17.6843H159.654Z" fill="#00A7E1"/>
<path d="M45.7227 3.79053V38.8404H46.9056L47.0536 39.8009L64.0069 39.9423V31.3909H56.8467V10.0941L45.7227 3.79053Z" fill="white"/>
<path d="M45.7576 2.62031C45.7576 1.74418 45.7576 0.872091 45.7939 0C49.5245 0 53.2551 0 56.9857 0C57.0059 3.01598 57.014 6.05619 56.9575 9.07217C53.2349 6.90002 49.5016 4.7494 45.7576 2.62031Z" fill="#00A7E1"/>
<path d="M26.6074 25.2626C30.0069 23.8454 34.0807 26.8775 33.4064 30.5355C33.039 33.8623 29.0137 35.9336 26.1269 34.2298C22.5578 32.5138 22.8121 26.5142 26.6074 25.2626Z" fill="#00A7E1"/>
<path d="M20.0357 6.93671C20.0122 6.97352 19.9887 7.01023 19.9653 7.04685C20.2732 7.13757 20.5855 7.21961 20.8977 7.30164C22.2808 7.665 23.6632 8.02818 24.6579 9.1448C25.985 10.5874 26.9595 12.2909 27.9326 13.9918C28.2177 14.4901 28.5026 14.9883 28.7963 15.4796C30.1526 17.7718 31.5005 20.0741 32.8486 22.3768C35.3329 26.6204 37.8183 30.8656 40.3596 35.0532C42.5277 38.7919 47.3565 41.0811 51.5232 39.3813C54.7693 38.0893 56.3722 34.6535 56.9495 31.4235C56.9358 31.4307 56.9221 31.4378 56.9084 31.445L56.909 31.4454C55.5435 36.0828 52.2715 33.3425 49.5439 29.6804C49.315 29.3841 49.0963 29.0778 48.8855 28.7648C47.5236 26.8066 46.3627 24.7425 45.7464 23.4772C45.5602 23.1571 45.3742 22.837 45.1884 22.5169C43.1026 19.0968 41.0218 15.6692 38.9433 12.2453C37.2921 9.52531 35.6423 6.80769 33.9925 4.09797C32.7813 1.86526 30.597 0.0645516 27.9363 0.161451C24.1564 0.488404 21.9033 4.01421 20.0357 6.93671Z" fill="#00A7E1"/>
<path d="M14.2771 39.9595H1.22656L19.965 7.04703C23.644 5.50583 27.2447 11.7662 28.5705 15.1014L14.2771 39.9595Z" fill="white"/>
</svg>